<mxfile host="Electron" agent="Mozilla/5.0 (Windows NT 10.0; Win64; x64) AppleWebKit/537.36 (KHTML, like Gecko) draw.io/26.2.2 Chrome/134.0.6998.178 Electron/35.1.2 Safari/537.36" version="26.2.2">
  <diagram name="Page-1" id="FaeNN_bReVTmCNazX6wg">
    <mxGraphModel dx="1869" dy="1857" grid="1" gridSize="10" guides="1" tooltips="1" connect="1" arrows="1" fold="1" page="1" pageScale="1" pageWidth="827" pageHeight="1169" math="0" shadow="0">
      <root>
        <mxCell id="0" />
        <mxCell id="1" parent="0" />
        <mxCell id="UMajPe4foJJOFt-TKj5b-15" style="edgeStyle=orthogonalEdgeStyle;rounded=0;orthogonalLoop=1;jettySize=auto;html=1;exitX=0.25;exitY=1;exitDx=0;exitDy=0;entryX=0.25;entryY=0;entryDx=0;entryDy=0;" edge="1" parent="1" source="UMajPe4foJJOFt-TKj5b-1" target="UMajPe4foJJOFt-TKj5b-14">
          <mxGeometry relative="1" as="geometry" />
        </mxCell>
        <mxCell id="UMajPe4foJJOFt-TKj5b-16" value="Current Data" style="edgeLabel;html=1;align=center;verticalAlign=middle;resizable=0;points=[];" vertex="1" connectable="0" parent="UMajPe4foJJOFt-TKj5b-15">
          <mxGeometry x="0.0377" relative="1" as="geometry">
            <mxPoint as="offset" />
          </mxGeometry>
        </mxCell>
        <mxCell id="UMajPe4foJJOFt-TKj5b-1" value="Trader Bot" style="whiteSpace=wrap;html=1;aspect=fixed;" vertex="1" parent="1">
          <mxGeometry x="370" y="170" width="130" height="130" as="geometry" />
        </mxCell>
        <mxCell id="UMajPe4foJJOFt-TKj5b-2" value="Broker" style="whiteSpace=wrap;html=1;aspect=fixed;" vertex="1" parent="1">
          <mxGeometry x="130" y="185" width="100" height="100" as="geometry" />
        </mxCell>
        <mxCell id="UMajPe4foJJOFt-TKj5b-3" value="Asset broker connection (Stock Market)" style="rounded=0;whiteSpace=wrap;html=1;" vertex="1" parent="1">
          <mxGeometry x="-140" y="205" width="120" height="60" as="geometry" />
        </mxCell>
        <mxCell id="UMajPe4foJJOFt-TKj5b-4" value="" style="endArrow=classic;html=1;rounded=0;exitX=1;exitY=0.25;exitDx=0;exitDy=0;entryX=-0.02;entryY=0.35;entryDx=0;entryDy=0;entryPerimeter=0;" edge="1" parent="1" source="UMajPe4foJJOFt-TKj5b-3" target="UMajPe4foJJOFt-TKj5b-2">
          <mxGeometry width="50" height="50" relative="1" as="geometry">
            <mxPoint x="390" y="450" as="sourcePoint" />
            <mxPoint x="440" y="400" as="targetPoint" />
          </mxGeometry>
        </mxCell>
        <mxCell id="UMajPe4foJJOFt-TKj5b-6" value="Data Request" style="edgeLabel;html=1;align=center;verticalAlign=middle;resizable=0;points=[];" vertex="1" connectable="0" parent="UMajPe4foJJOFt-TKj5b-4">
          <mxGeometry x="-0.049" y="-1" relative="1" as="geometry">
            <mxPoint x="-6" as="offset" />
          </mxGeometry>
        </mxCell>
        <mxCell id="UMajPe4foJJOFt-TKj5b-5" value="" style="endArrow=classic;html=1;rounded=0;exitX=-0.014;exitY=0.654;exitDx=0;exitDy=0;exitPerimeter=0;entryX=1;entryY=0.75;entryDx=0;entryDy=0;" edge="1" parent="1" source="UMajPe4foJJOFt-TKj5b-2" target="UMajPe4foJJOFt-TKj5b-3">
          <mxGeometry width="50" height="50" relative="1" as="geometry">
            <mxPoint x="140" y="330" as="sourcePoint" />
            <mxPoint x="190" y="280" as="targetPoint" />
          </mxGeometry>
        </mxCell>
        <mxCell id="UMajPe4foJJOFt-TKj5b-7" value="Buy/Sell API" style="edgeLabel;html=1;align=center;verticalAlign=middle;resizable=0;points=[];" vertex="1" connectable="0" parent="UMajPe4foJJOFt-TKj5b-5">
          <mxGeometry x="0.0548" relative="1" as="geometry">
            <mxPoint x="13" as="offset" />
          </mxGeometry>
        </mxCell>
        <mxCell id="UMajPe4foJJOFt-TKj5b-8" value="" style="endArrow=classic;html=1;rounded=0;exitX=-0.005;exitY=0.643;exitDx=0;exitDy=0;exitPerimeter=0;entryX=1.022;entryY=0.686;entryDx=0;entryDy=0;entryPerimeter=0;" edge="1" parent="1" source="UMajPe4foJJOFt-TKj5b-1" target="UMajPe4foJJOFt-TKj5b-2">
          <mxGeometry width="50" height="50" relative="1" as="geometry">
            <mxPoint x="320" y="310" as="sourcePoint" />
            <mxPoint x="370" y="260" as="targetPoint" />
          </mxGeometry>
        </mxCell>
        <mxCell id="UMajPe4foJJOFt-TKj5b-9" value="Buy/Sell Order" style="edgeLabel;html=1;align=center;verticalAlign=middle;resizable=0;points=[];" vertex="1" connectable="0" parent="UMajPe4foJJOFt-TKj5b-8">
          <mxGeometry x="0.2359" y="-2" relative="1" as="geometry">
            <mxPoint x="25" as="offset" />
          </mxGeometry>
        </mxCell>
        <mxCell id="UMajPe4foJJOFt-TKj5b-10" style="edgeStyle=orthogonalEdgeStyle;rounded=0;orthogonalLoop=1;jettySize=auto;html=1;exitX=1;exitY=0.25;exitDx=0;exitDy=0;entryX=-0.005;entryY=0.311;entryDx=0;entryDy=0;entryPerimeter=0;" edge="1" parent="1" source="UMajPe4foJJOFt-TKj5b-2" target="UMajPe4foJJOFt-TKj5b-1">
          <mxGeometry relative="1" as="geometry" />
        </mxCell>
        <mxCell id="UMajPe4foJJOFt-TKj5b-11" value="Most Recent Data" style="edgeLabel;html=1;align=center;verticalAlign=middle;resizable=0;points=[];" vertex="1" connectable="0" parent="UMajPe4foJJOFt-TKj5b-10">
          <mxGeometry x="-0.1499" y="-1" relative="1" as="geometry">
            <mxPoint as="offset" />
          </mxGeometry>
        </mxCell>
        <mxCell id="UMajPe4foJJOFt-TKj5b-17" style="edgeStyle=orthogonalEdgeStyle;rounded=0;orthogonalLoop=1;jettySize=auto;html=1;exitX=0.75;exitY=0;exitDx=0;exitDy=0;entryX=0.5;entryY=1;entryDx=0;entryDy=0;" edge="1" parent="1" source="UMajPe4foJJOFt-TKj5b-14" target="UMajPe4foJJOFt-TKj5b-1">
          <mxGeometry relative="1" as="geometry">
            <Array as="points">
              <mxPoint x="205" y="380" />
              <mxPoint x="435" y="380" />
            </Array>
          </mxGeometry>
        </mxCell>
        <mxCell id="UMajPe4foJJOFt-TKj5b-18" value="Confidence Index Vector for B/S/H for position" style="edgeLabel;html=1;align=center;verticalAlign=middle;resizable=0;points=[];" vertex="1" connectable="0" parent="UMajPe4foJJOFt-TKj5b-17">
          <mxGeometry x="-0.1303" y="1" relative="1" as="geometry">
            <mxPoint x="-8" as="offset" />
          </mxGeometry>
        </mxCell>
        <mxCell id="UMajPe4foJJOFt-TKj5b-20" style="edgeStyle=orthogonalEdgeStyle;rounded=0;orthogonalLoop=1;jettySize=auto;html=1;exitX=0.25;exitY=1;exitDx=0;exitDy=0;entryX=0.25;entryY=0;entryDx=0;entryDy=0;" edge="1" parent="1" source="UMajPe4foJJOFt-TKj5b-14" target="UMajPe4foJJOFt-TKj5b-19">
          <mxGeometry relative="1" as="geometry" />
        </mxCell>
        <mxCell id="UMajPe4foJJOFt-TKj5b-22" value="Current Data" style="edgeLabel;html=1;align=center;verticalAlign=middle;resizable=0;points=[];" vertex="1" connectable="0" parent="UMajPe4foJJOFt-TKj5b-20">
          <mxGeometry x="-0.169" y="-2" relative="1" as="geometry">
            <mxPoint as="offset" />
          </mxGeometry>
        </mxCell>
        <mxCell id="UMajPe4foJJOFt-TKj5b-14" value="Strategy (or numerous Strategy Objects)" style="whiteSpace=wrap;html=1;aspect=fixed;" vertex="1" parent="1">
          <mxGeometry x="130" y="400" width="100" height="100" as="geometry" />
        </mxCell>
        <mxCell id="UMajPe4foJJOFt-TKj5b-21" style="edgeStyle=orthogonalEdgeStyle;rounded=0;orthogonalLoop=1;jettySize=auto;html=1;exitX=0.75;exitY=0;exitDx=0;exitDy=0;entryX=0.75;entryY=1;entryDx=0;entryDy=0;" edge="1" parent="1" source="UMajPe4foJJOFt-TKj5b-19" target="UMajPe4foJJOFt-TKj5b-14">
          <mxGeometry relative="1" as="geometry" />
        </mxCell>
        <mxCell id="UMajPe4foJJOFt-TKj5b-23" value="Buy/&lt;div&gt;Hold/&lt;/div&gt;&lt;div&gt;Sell&amp;nbsp;&lt;/div&gt;&lt;div&gt;Signals&lt;/div&gt;" style="edgeLabel;html=1;align=center;verticalAlign=middle;resizable=0;points=[];" vertex="1" connectable="0" parent="UMajPe4foJJOFt-TKj5b-21">
          <mxGeometry x="0.0976" y="-1" relative="1" as="geometry">
            <mxPoint as="offset" />
          </mxGeometry>
        </mxCell>
        <mxCell id="UMajPe4foJJOFt-TKj5b-19" value="Indicator (or Indicators)" style="whiteSpace=wrap;html=1;aspect=fixed;" vertex="1" parent="1">
          <mxGeometry x="130" y="620" width="100" height="100" as="geometry" />
        </mxCell>
        <mxCell id="UMajPe4foJJOFt-TKj5b-34" style="edgeStyle=orthogonalEdgeStyle;rounded=0;orthogonalLoop=1;jettySize=auto;html=1;exitX=1;exitY=0.5;exitDx=0;exitDy=0;entryX=0;entryY=0.5;entryDx=0;entryDy=0;" edge="1" parent="1" source="UMajPe4foJJOFt-TKj5b-24" target="UMajPe4foJJOFt-TKj5b-25">
          <mxGeometry relative="1" as="geometry" />
        </mxCell>
        <mxCell id="UMajPe4foJJOFt-TKj5b-38" style="edgeStyle=orthogonalEdgeStyle;rounded=0;orthogonalLoop=1;jettySize=auto;html=1;exitX=0;exitY=0.5;exitDx=0;exitDy=0;entryX=0;entryY=0.5;entryDx=0;entryDy=0;" edge="1" parent="1" source="UMajPe4foJJOFt-TKj5b-24" target="UMajPe4foJJOFt-TKj5b-14">
          <mxGeometry relative="1" as="geometry">
            <Array as="points">
              <mxPoint x="-220" y="-85" />
              <mxPoint x="-220" y="450" />
            </Array>
          </mxGeometry>
        </mxCell>
        <mxCell id="UMajPe4foJJOFt-TKj5b-39" value="Utilise Higher-level strategies&lt;div&gt;to determine efficacy of asset&#39;s potential return&lt;/div&gt;" style="edgeLabel;html=1;align=center;verticalAlign=middle;resizable=0;points=[];" vertex="1" connectable="0" parent="UMajPe4foJJOFt-TKj5b-38">
          <mxGeometry x="-0.7011" y="1" relative="1" as="geometry">
            <mxPoint as="offset" />
          </mxGeometry>
        </mxCell>
        <mxCell id="UMajPe4foJJOFt-TKj5b-24" value="Scout Bot" style="whiteSpace=wrap;html=1;aspect=fixed;" vertex="1" parent="1">
          <mxGeometry x="115" y="-150" width="130" height="130" as="geometry" />
        </mxCell>
        <mxCell id="UMajPe4foJJOFt-TKj5b-40" style="edgeStyle=orthogonalEdgeStyle;rounded=0;orthogonalLoop=1;jettySize=auto;html=1;exitX=0.5;exitY=1;exitDx=0;exitDy=0;entryX=0.5;entryY=0;entryDx=0;entryDy=0;" edge="1" parent="1" source="UMajPe4foJJOFt-TKj5b-25" target="UMajPe4foJJOFt-TKj5b-1">
          <mxGeometry relative="1" as="geometry" />
        </mxCell>
        <mxCell id="UMajPe4foJJOFt-TKj5b-41" value="Create Trader Bot&lt;div&gt;to identify a good position&lt;/div&gt;&lt;div&gt;to enter trade&lt;/div&gt;" style="edgeLabel;html=1;align=center;verticalAlign=middle;resizable=0;points=[];" vertex="1" connectable="0" parent="UMajPe4foJJOFt-TKj5b-40">
          <mxGeometry x="-0.0123" relative="1" as="geometry">
            <mxPoint as="offset" />
          </mxGeometry>
        </mxCell>
        <mxCell id="UMajPe4foJJOFt-TKj5b-25" value="Architect Bot" style="whiteSpace=wrap;html=1;aspect=fixed;" vertex="1" parent="1">
          <mxGeometry x="370" y="-150" width="130" height="130" as="geometry" />
        </mxCell>
        <mxCell id="UMajPe4foJJOFt-TKj5b-26" value="Asset watchlist" style="rounded=0;whiteSpace=wrap;html=1;" vertex="1" parent="1">
          <mxGeometry x="120" y="-300" width="120" height="60" as="geometry" />
        </mxCell>
        <mxCell id="UMajPe4foJJOFt-TKj5b-27" value="" style="endArrow=classic;html=1;rounded=0;exitX=0.5;exitY=1;exitDx=0;exitDy=0;entryX=0.5;entryY=0;entryDx=0;entryDy=0;" edge="1" parent="1" source="UMajPe4foJJOFt-TKj5b-26" target="UMajPe4foJJOFt-TKj5b-24">
          <mxGeometry width="50" height="50" relative="1" as="geometry">
            <mxPoint x="-195" as="sourcePoint" />
            <mxPoint x="-145" y="-50" as="targetPoint" />
          </mxGeometry>
        </mxCell>
        <mxCell id="UMajPe4foJJOFt-TKj5b-33" value="Series of assets&amp;nbsp;&lt;div&gt;to pay attention to&lt;/div&gt;" style="edgeLabel;html=1;align=center;verticalAlign=middle;resizable=0;points=[];" vertex="1" connectable="0" parent="UMajPe4foJJOFt-TKj5b-27">
          <mxGeometry x="-0.0815" relative="1" as="geometry">
            <mxPoint as="offset" />
          </mxGeometry>
        </mxCell>
        <mxCell id="UMajPe4foJJOFt-TKj5b-29" style="edgeStyle=orthogonalEdgeStyle;rounded=0;orthogonalLoop=1;jettySize=auto;html=1;exitX=0.75;exitY=1;exitDx=0;exitDy=0;entryX=0.824;entryY=-0.002;entryDx=0;entryDy=0;entryPerimeter=0;" edge="1" parent="1" source="UMajPe4foJJOFt-TKj5b-24" target="UMajPe4foJJOFt-TKj5b-2">
          <mxGeometry relative="1" as="geometry" />
        </mxCell>
        <mxCell id="UMajPe4foJJOFt-TKj5b-31" value="Asset Data&lt;div&gt;Request&lt;/div&gt;" style="edgeLabel;html=1;align=center;verticalAlign=middle;resizable=0;points=[];" vertex="1" connectable="0" parent="UMajPe4foJJOFt-TKj5b-29">
          <mxGeometry x="-0.4812" y="3" relative="1" as="geometry">
            <mxPoint y="47" as="offset" />
          </mxGeometry>
        </mxCell>
        <mxCell id="UMajPe4foJJOFt-TKj5b-30" style="edgeStyle=orthogonalEdgeStyle;rounded=0;orthogonalLoop=1;jettySize=auto;html=1;exitX=0.181;exitY=-0.016;exitDx=0;exitDy=0;entryX=0.25;entryY=1;entryDx=0;entryDy=0;exitPerimeter=0;" edge="1" parent="1" source="UMajPe4foJJOFt-TKj5b-2" target="UMajPe4foJJOFt-TKj5b-24">
          <mxGeometry relative="1" as="geometry" />
        </mxCell>
        <mxCell id="UMajPe4foJJOFt-TKj5b-32" value="Current Data" style="edgeLabel;html=1;align=center;verticalAlign=middle;resizable=0;points=[];" vertex="1" connectable="0" parent="UMajPe4foJJOFt-TKj5b-30">
          <mxGeometry x="-0.1038" y="2" relative="1" as="geometry">
            <mxPoint y="-12" as="offset" />
          </mxGeometry>
        </mxCell>
      </root>
    </mxGraphModel>
  </diagram>
</mxfile>
